# Blender 3.6.0
# www.blender.org
mtllib Llama2.mtl
o Circle.002
v 0.000001 -1.007406 0.000419
v 0.000001 -0.988640 -0.194646
v 0.000001 -0.933579 -0.382134
v 0.000001 -0.847309 -0.549458
v 0.000001 -0.739999 -0.677229
v 0.000001 -0.617083 -0.759802
v 0.000000 -0.483578 -0.795657
v 0.000000 -0.347089 -0.778268
v 0.000000 -0.232535 -0.654101
v 0.000000 -0.122914 -0.483006
v 0.000000 0.021302 -0.389208
v -0.000000 0.262680 -0.409322
v -0.000000 0.565719 -0.368504
v -0.000000 0.999335 -0.443351
v -0.000000 1.522533 -0.569495
v -0.000000 2.052679 -0.616702
v -0.000001 2.184210 -0.377202
v -0.000001 1.979294 -0.018003
v -0.000001 1.580967 0.164133
v -0.000001 0.787480 0.376322
v -0.000001 0.954576 0.757987
v -0.000001 0.930405 1.062670
v -0.000000 0.407326 1.035180
v -0.000000 -0.021474 0.817355
v -0.000000 -0.202777 0.814416
v -0.000000 -0.340063 0.883822
v -0.000000 -0.474201 0.912094
v 0.000000 -0.612691 0.833115
v 0.000000 -0.740015 0.708276
v 0.000000 -0.848849 0.556399
v 0.000000 -0.934462 0.383283
v 0.000000 -0.989040 0.195558
v 0.000001 -0.998096 -0.097109
v 0.000001 -0.961165 -0.288387
v 0.000001 -0.889561 -0.467699
v 0.000001 -0.792735 -0.615193
v 0.000001 -0.677761 -0.719912
v 0.000001 -0.549773 -0.778494
v 0.000000 -0.413489 -0.791333
v 0.000000 -0.287651 -0.721797
v 0.000000 -0.180423 -0.561289
v 0.000000 -0.059071 -0.414184
v 0.000000 0.126561 -0.385272
v -0.000000 0.405703 -0.395066
v -0.000000 0.766095 -0.385324
v -0.000000 1.240050 -0.498435
v -0.000000 1.813907 -0.619652
v -0.000000 2.174159 -0.532753
v -0.000001 2.102776 -0.194424
v -0.000001 1.801302 0.084053
v -0.000001 1.175343 0.315929
v -0.000001 0.852058 0.556708
v -0.000001 0.996518 0.942710
v -0.000001 0.679984 1.066922
v -0.000000 0.160664 0.928042
v -0.000000 -0.129093 0.789149
v -0.000000 -0.272518 0.843583
v -0.000000 -0.405910 0.903606
v -0.000000 -0.541864 0.879636
v 0.000000 -0.675837 0.770694
v 0.000000 -0.793783 0.632339
v 0.000000 -0.890940 0.469844
v 0.000000 -0.961797 0.289423
v 0.000000 -0.998293 0.097992
v 0.000000 -0.112752 0.125378
v -0.000000 -0.112752 0.125378
vn 1.0000 -0.0000 -0.0000
vt 0.146517 0.853483
vt 0.111702 0.818668
vt 0.500000 0.500000
vt 0.084348 0.777730
vt 0.056994 0.736791
vt 0.038153 0.691303
vt 0.019311 0.645815
vt 0.009705 0.597526
vt 0.000100 0.549236
vt 0.000100 0.500000
vt 0.000100 0.450764
vt 0.009705 0.402474
vt 0.019311 0.354185
vt 0.038153 0.308696
vt 0.056994 0.263209
vt 0.084348 0.222270
vt 0.111702 0.181332
vt 0.146517 0.146517
vt 0.181332 0.111702
vt 0.222271 0.084348
vt 0.263209 0.056994
vt 0.308697 0.038153
vt 0.354185 0.019311
vt 0.402474 0.009705
vt 0.450764 0.000100
vt 0.500000 0.000100
vt 0.549236 0.000100
vt 0.597526 0.009705
vt 0.645816 0.019311
vt 0.691304 0.038153
vt 0.736792 0.056994
vt 0.777730 0.084348
vt 0.818668 0.111702
vt 0.853483 0.146517
vt 0.888298 0.181332
vt 0.915652 0.222271
vt 0.943006 0.263209
vt 0.961847 0.308697
vt 0.980689 0.354185
vt 0.990295 0.402474
vt 0.999900 0.450764
vt 0.999900 0.500000
vt 0.999900 0.549236
vt 0.990295 0.597526
vt 0.980689 0.645816
vt 0.961847 0.691304
vt 0.943006 0.736792
vt 0.915652 0.777730
vt 0.888298 0.818668
vt 0.853483 0.853483
vt 0.818668 0.888298
vt 0.777730 0.915652
vt 0.736791 0.943006
vt 0.691303 0.961847
vt 0.645815 0.980689
vt 0.597526 0.990295
vt 0.549236 0.999900
vt 0.500000 0.999900
vt 0.450764 0.999900
vt 0.402474 0.990295
vt 0.354184 0.980689
vt 0.308696 0.961847
vt 0.263208 0.943006
vt 0.222270 0.915652
vt 0.181332 0.888298
s 0
usemtl Material.001
f 33/1/1 2/2/1 66/3/1
f 2/2/1 34/4/1 66/3/1
f 34/4/1 3/5/1 66/3/1
f 3/5/1 35/6/1 66/3/1
f 35/6/1 4/7/1 66/3/1
f 4/7/1 36/8/1 66/3/1
f 36/8/1 5/9/1 66/3/1
f 5/9/1 37/10/1 66/3/1
f 37/10/1 6/11/1 66/3/1
f 6/11/1 38/12/1 66/3/1
f 38/12/1 7/13/1 66/3/1
f 7/13/1 39/14/1 66/3/1
f 39/14/1 8/15/1 66/3/1
f 8/15/1 40/16/1 66/3/1
f 40/16/1 9/17/1 66/3/1
f 9/17/1 41/18/1 66/3/1
f 41/18/1 10/19/1 66/3/1
f 10/19/1 42/20/1 66/3/1
f 42/20/1 11/21/1 66/3/1
f 11/21/1 43/22/1 66/3/1
f 43/22/1 12/23/1 66/3/1
f 12/23/1 44/24/1 66/3/1
f 44/24/1 13/25/1 66/3/1
f 13/25/1 45/26/1 66/3/1
f 45/26/1 14/27/1 66/3/1
f 14/27/1 46/28/1 66/3/1
f 46/28/1 15/29/1 66/3/1
f 15/29/1 47/30/1 66/3/1
f 47/30/1 16/31/1 66/3/1
f 16/31/1 48/32/1 66/3/1
f 48/32/1 17/33/1 66/3/1
f 17/33/1 49/34/1 66/3/1
f 49/34/1 18/35/1 66/3/1
f 18/35/1 50/36/1 66/3/1
f 50/36/1 19/37/1 66/3/1
f 19/37/1 51/38/1 66/3/1
f 51/38/1 20/39/1 66/3/1
f 20/39/1 52/40/1 66/3/1
f 52/40/1 21/41/1 66/3/1
f 21/41/1 53/42/1 66/3/1
f 53/42/1 22/43/1 66/3/1
f 22/43/1 54/44/1 66/3/1
f 54/44/1 23/45/1 66/3/1
f 23/45/1 55/46/1 66/3/1
f 55/46/1 24/47/1 66/3/1
f 24/47/1 56/48/1 66/3/1
f 56/48/1 25/49/1 66/3/1
f 25/49/1 57/50/1 66/3/1
f 57/50/1 26/51/1 66/3/1
f 26/51/1 58/52/1 66/3/1
f 58/52/1 27/53/1 66/3/1
f 27/53/1 59/54/1 66/3/1
f 59/54/1 28/55/1 66/3/1
f 28/55/1 60/56/1 66/3/1
f 60/56/1 29/57/1 66/3/1
f 29/57/1 61/58/1 66/3/1
f 61/58/1 30/59/1 66/3/1
f 30/59/1 62/60/1 66/3/1
f 62/60/1 31/61/1 66/3/1
f 31/61/1 63/62/1 66/3/1
f 63/62/1 32/63/1 66/3/1
f 32/63/1 64/64/1 66/3/1
f 64/64/1 1/65/1 66/3/1
f 1/65/1 33/1/1 66/3/1
