# Blender 4.5.0
# www.blender.org
o Spark
v -0.003249 -0.026530 -0.000195
v 0.019794 -0.014331 0.017311
v -0.008440 -0.013654 0.025965
v -0.024407 -0.014567 0.000890
v -0.007655 -0.008100 -0.023318
v 0.016009 -0.004136 -0.012404
v 0.004513 0.012459 0.023181
v -0.013386 0.007616 0.015567
v -0.011474 0.008223 -0.011775
v 0.006165 0.013289 -0.024546
v 0.012428 0.009262 0.007903
v 0.001330 0.027968 0.002650
v -0.004960 -0.025970 0.015264
v 0.010616 -0.023053 0.009292
v 0.008025 -0.016050 0.024698
v 0.019710 -0.013349 0.001622
v 0.005086 -0.011079 -0.007470
v -0.015970 -0.025910 -0.000017
v -0.020717 -0.016200 0.015382
v -0.005855 -0.019219 -0.014177
v -0.014404 -0.011408 -0.016491
v 0.006411 -0.003079 -0.019612
v 0.019245 -0.002888 0.014810
v 0.018689 -0.001998 -0.003994
v -0.001018 -0.000323 0.027996
v 0.014581 -0.000994 0.026290
v -0.019922 -0.004693 0.013023
v -0.016632 -0.001303 0.023639
v -0.015728 -0.000348 -0.023549
v -0.018861 -0.003909 -0.005969
v 0.015001 0.003735 -0.020464
v 0.000347 0.004620 -0.028127
v 0.010341 0.012883 0.018454
v -0.008604 0.014147 0.018931
v -0.009025 0.006891 0.005581
v -0.005950 0.014989 -0.023863
v 0.011222 0.013161 -0.009887
v 0.001275 0.024173 0.014293
v 0.007043 0.022555 0.005372
v -0.005230 0.020845 0.009642
v -0.003833 0.021289 -0.005749
v 0.003117 0.024268 -0.012885
vn 0.2052 -0.9770 0.0581
vn 0.7097 -0.7029 -0.0478
vn -0.0482 -0.9984 0.0308
vn -0.0497 -0.8889 -0.4555
vn 0.6936 -0.5771 -0.4310
vn 0.9989 0.0474 -0.0024
vn 0.0498 -0.1774 0.9829
vn -0.9589 0.1191 0.2575
vn -0.4726 -0.5136 -0.7162
vn 0.4264 -0.6199 -0.6587
vn 0.9264 0.1223 0.3561
vn -0.2689 0.0030 0.9632
vn -0.8948 0.4453 -0.0316
vn -0.1983 -0.2350 -0.9515
vn 0.9524 -0.1498 -0.2654
vn 0.4707 0.6122 0.6354
vn -0.8266 0.5540 0.0993
vn -0.8824 0.4429 0.1585
vn 0.0651 0.7350 -0.6750
vn 0.9253 0.3787 0.0203
vn 0.7066 0.7024 -0.0860
vn 0.8172 0.5632 -0.1229
vn 0.8105 0.5172 -0.2751
vn -0.5874 0.7694 -0.2509
vn -0.5612 0.7999 -0.2126
vn -0.8420 0.5324 -0.0867
vn -0.7587 0.6495 -0.0502
vn -0.9559 0.2829 -0.0787
vn -0.8502 0.3466 -0.3964
vn -0.5768 0.7774 0.2507
vn -0.6002 0.7362 0.3128
vn -0.1893 0.5598 0.8067
vn 0.6004 0.7595 0.2504
vn 0.6784 0.6621 0.3185
vn 0.9222 0.3833 0.0509
vn 0.8903 0.4537 0.0391
vn 0.9040 0.4239 -0.0549
vn 0.7617 0.5944 -0.2576
vn 0.0014 0.3810 -0.9246
vn -0.3219 0.1862 -0.9283
vn -0.8409 0.5344 -0.0851
vn -0.8082 0.5675 0.1576
vn -0.7324 0.6807 -0.0128
vn -0.7831 0.4939 -0.3778
vn -0.8375 0.5013 0.2172
vn -0.2692 0.4060 0.8733
vn -0.2282 0.4281 0.8744
vn 0.5079 0.5360 0.6744
vn 0.8621 0.4219 0.2806
vn 0.8712 0.4909 0.0038
vn 0.4652 0.0528 -0.8836
vn 0.3609 -0.5493 -0.7537
vn 0.3877 -0.5293 -0.7547
vn -0.8639 0.5009 -0.0524
vn -0.9424 -0.2526 -0.2191
vn -0.8686 0.1476 -0.4730
vn -0.8865 0.4432 0.1332
vn -0.9585 0.1193 0.2589
vn -0.6003 -0.2554 0.7579
vn 0.1165 0.3056 0.9450
vn 0.1012 -0.1481 0.9838
vn 0.5370 -0.3165 0.7819
vn 0.8728 0.4881 -0.0027
vn 0.9967 0.0769 -0.0258
vn 0.9554 -0.0575 -0.2898
vn 0.2892 -0.8135 -0.5045
vn 0.6873 -0.6388 -0.3459
vn 0.3902 -0.5462 -0.7412
vn -0.3843 -0.6226 -0.6817
vn -0.4321 -0.6562 -0.6187
vn -0.7136 -0.4908 -0.4999
vn -0.7900 -0.5983 0.1337
vn -0.4915 -0.7970 0.3510
vn -0.4058 -0.6621 0.6301
vn 0.2369 -0.7822 -0.5763
vn 0.2688 -0.7396 -0.6170
vn 0.5540 -0.5800 -0.5972
vn -0.0387 -0.6616 0.7489
vn 0.3244 -0.8394 0.4361
vn 0.3913 -0.8112 0.4345
vt 0.181819 0.000000
vt 0.227273 0.078731
vt 0.136365 0.078731
vt 0.272728 0.157461
vt 0.318182 0.078731
vt 0.363637 0.157461
vt 0.909091 0.000000
vt 0.954545 0.078731
vt 0.863636 0.078731
vt 0.727273 0.000000
vt 0.772727 0.078731
vt 0.681818 0.078731
vt 0.545455 0.000000
vt 0.590909 0.078731
vt 0.500000 0.078731
vt 0.318182 0.236191
vt 0.090910 0.157461
vt 0.181819 0.157461
vt 0.136365 0.236191
vt 0.818182 0.157461
vt 0.909091 0.157461
vt 0.863636 0.236191
vt 0.636364 0.157461
vt 0.727273 0.157461
vt 0.681818 0.236191
vt 0.454546 0.157461
vt 0.545455 0.157461
vt 0.500000 0.236191
vt 0.227273 0.236191
vt 0.045455 0.236191
vt 0.772727 0.236191
vt 0.590909 0.236191
vt 0.409092 0.236191
vt 0.181819 0.314921
vt 0.272728 0.314921
vt 0.227273 0.393651
vt 0.000000 0.314921
vt 0.090910 0.314921
vt 0.045455 0.393651
vt 0.727273 0.314921
vt 0.818182 0.314921
vt 0.772727 0.393651
vt 0.545455 0.314921
vt 0.636364 0.314921
vt 0.590909 0.393651
vt 0.363637 0.314921
vt 0.454546 0.314921
vt 0.409092 0.393651
vt 0.500000 0.393651
vt 0.454546 0.472382
vt 0.681818 0.393651
vt 0.636364 0.472382
vt 0.863636 0.393651
vt 0.818182 0.472382
vt 0.909091 0.314921
vt 0.136365 0.393651
vt 0.090910 0.472382
vt 0.318182 0.393651
vt 0.272728 0.472382
vt 0.954545 0.236191
vt 1.000000 0.157461
vt 0.409092 0.078731
vt 0.363637 0.000000
s 0
f 1/1/1 14/2/1 13/3/1
f 2/4/2 14/5/2 16/6/2
f 1/7/3 13/8/3 18/9/3
f 1/10/4 18/11/4 20/12/4
f 1/13/5 20/14/5 17/15/5
f 2/4/6 16/6/6 23/16/6
f 3/17/7 15/18/7 25/19/7
f 4/20/8 19/21/8 27/22/8
f 5/23/9 21/24/9 29/25/9
f 6/26/10 22/27/10 31/28/10
f 2/4/11 23/16/11 26/29/11
f 3/17/12 25/19/12 28/30/12
f 4/20/13 27/22/13 30/31/13
f 5/23/14 29/25/14 32/32/14
f 6/26/15 31/28/15 24/33/15
f 7/34/16 33/35/16 38/36/16
f 8/37/17 34/38/17 40/39/17
f 9/40/18 35/41/18 41/42/18
f 10/43/19 36/44/19 42/45/19
f 11/46/20 37/47/20 39/48/20
f 39/48/21 42/49/21 12/50/21
f 39/48/22 37/47/22 42/49/22
f 37/47/23 10/43/23 42/49/23
f 42/45/24 41/51/24 12/52/24
f 42/45/25 36/44/25 41/51/25
f 36/44/26 9/40/26 41/51/26
f 41/42/27 40/53/27 12/54/27
f 41/42/28 35/41/28 40/53/28
f 35/41/29 8/55/29 40/53/29
f 40/39/30 38/56/30 12/57/30
f 40/39/31 34/38/31 38/56/31
f 34/38/32 7/34/32 38/56/32
f 38/36/33 39/58/33 12/59/33
f 38/36/34 33/35/34 39/58/34
f 33/35/35 11/46/35 39/58/35
f 24/33/36 37/47/36 11/46/36
f 24/33/37 31/28/37 37/47/37
f 31/28/38 10/43/38 37/47/38
f 32/32/39 36/44/39 10/43/39
f 32/32/40 29/25/40 36/44/40
f 29/25/41 9/40/41 36/44/41
f 30/31/42 35/41/42 9/40/42
f 30/31/43 27/22/43 35/41/43
f 27/22/44 8/55/44 35/41/44
f 28/30/45 34/38/45 8/37/45
f 28/30/46 25/19/46 34/38/46
f 25/19/47 7/34/47 34/38/47
f 26/29/48 33/35/48 7/34/48
f 26/29/49 23/16/49 33/35/49
f 23/16/50 11/46/50 33/35/50
f 31/28/51 32/32/51 10/43/51
f 31/28/52 22/27/52 32/32/52
f 22/27/53 5/23/53 32/32/53
f 29/25/54 30/31/54 9/40/54
f 29/25/55 21/24/55 30/31/55
f 21/24/56 4/20/56 30/31/56
f 27/22/57 28/60/57 8/55/57
f 27/22/58 19/21/58 28/60/58
f 19/21/59 3/61/59 28/60/59
f 25/19/60 26/29/60 7/34/60
f 25/19/61 15/18/61 26/29/61
f 15/18/62 2/4/62 26/29/62
f 23/16/63 24/33/63 11/46/63
f 23/16/64 16/6/64 24/33/64
f 16/6/65 6/26/65 24/33/65
f 17/15/66 22/27/66 6/26/66
f 17/15/67 20/14/67 22/27/67
f 20/14/68 5/23/68 22/27/68
f 20/12/69 21/24/69 5/23/69
f 20/12/70 18/11/70 21/24/70
f 18/11/71 4/20/71 21/24/71
f 18/9/72 19/21/72 4/20/72
f 18/9/73 13/8/73 19/21/73
f 13/8/74 3/61/74 19/21/74
f 16/6/75 17/62/75 6/26/75
f 16/6/76 14/5/76 17/62/76
f 14/5/77 1/63/77 17/62/77
f 13/3/78 15/18/78 3/17/78
f 13/3/79 14/2/79 15/18/79
f 14/2/80 2/4/80 15/18/80
